<!-- Generated by IcoMoon.io -->
<svg version="1.1" xmlns="http://www.w3.org/2000/svg" width="32" height="32" viewBox="0 0 32 32">
<title>uniE901</title>
<path d="M1.844 6h22.313q0.781 0 1.313 0.531t0.531 1.313v0 0.313q0 0.781-0.531 1.313t-1.313 0.531h-22.313q-0.781 0-1.313-0.531t-0.531-1.313v0-0.313q0-0.781 0.531-1.313t1.313-0.531v0 0zM1.844 14h28.313q0.781 0 1.313 0.531t0.531 1.313v0 0.281q0 0.781-0.531 1.313t-1.313 0.531h-28.313q-0.75 0-1.297-0.531t-0.547-1.281v-0.313q0-0.781 0.531-1.313t1.313-0.531v0 0zM1.844 22h22.313q0.781 0 1.313 0.531t0.531 1.313v0 0.313q0 0.781-0.531 1.313t-1.313 0.531v0h-22.313q-0.781 0-1.313-0.531t-0.531-1.313v0-0.313q0-0.781 0.531-1.313t1.313-0.531v0 0z"></path>
</svg>
