<!-- Generated by IcoMoon.io -->
<svg version="1.1" xmlns="http://www.w3.org/2000/svg" width="32" height="32" viewBox="0 0 32 32">
<title>uniE914</title>
<path d="M17 30v0h-0.156q-2.219 0-4.188-0.844-1.969-0.813-3.438-2.266t-2.313-3.391q-0.875-1.938-0.906-4.156 0-2.219 1.531-5.219 1.5-2.969 3.438-5.672t3.719-4.578 2.313-1.875 2.313 1.875 3.719 4.578 3.438 5.672q1.531 3 1.531 5.219v0q-0.031 2.219-0.906 4.156-0.844 1.938-2.313 3.391t-3.438 2.266q-1.969 0.844-4.188 0.844h-0.156zM17 27.344h0.125q1.656 0 3.125-0.625t2.578-1.719 1.734-2.531q0.656-1.469 0.688-3.125v0q0-1.656-1.188-3.969-1.156-2.281-2.625-4.359t-2.813-3.547q-1.313-1.469-1.625-1.469t-1.625 1.469q-1.344 1.469-2.813 3.547t-2.625 4.359q-1.188 2.313-1.188 3.969 0.031 1.656 0.688 3.125 0.625 1.438 1.734 2.531t2.578 1.719 3.125 0.625h0.125z"></path>
</svg>
