<?xml version="1.0" encoding="UTF-8"?><!DOCTYPE svg PUBLIC "-//W3C//DTD SVG 1.1//EN" "http://www.w3.org/Graphics/SVG/1.1/DTD/svg11.dtd"><svg xmlns="http://www.w3.org/2000/svg"><symbol id="aligncenter" viewBox="0 0 100 100">
    <path d="M98.904 42.918l.19 13.973H.905l.19-13.972h97.81zM78.04 21.863l-.19 13.973h-55.7l-.19-13.973h56.08zm0 42.11l-.19 13.972h-55.7l-.19-13.973h56.08z"/>
</symbol><symbol id="alignleft" viewBox="0 0 100 100">
    <path d="M99 21.863v13.973H1V21.863h98zM70.863 42.918V56.89H1V42.92h69.863zM43.11 63.973v13.973H1V63.973h42.11z"/>
</symbol><symbol id="alignment" viewBox="0 0 100 100">
    <path d="M1 1v98h98V1H1zm91 91H8V8h84v84z"/>
    <path d="M22.055 21.863h55.89v13.973h-55.89zM22.055 42.918h55.89V56.89h-55.89zM22.055 63.973h55.89v13.973h-55.89z"/>
</symbol><symbol id="alignright" viewBox="0 0 100 100">
    <path d="M99 21.863v13.973H1V21.863h98zm0 21.055V56.89H28.945V42.92H99zm0 21.055v13.973H57.082V63.973H99z"/>
</symbol><symbol id="background" viewBox="0 0 100 100">
    <path d="M8 8v84h84V8H8zm52.336 70l-3.254-14H42.727l-3.062 14h-10.72l14.547-56h13.016l14.355 56H60.336z"/>
    <path d="M45.023 55h9.954L50 32.03"/>
</symbol><symbol id="bold" viewBox="0 0 100 100">
    <path d="M70.73 57.178c-.19-1.083-.416-2.105-.67-3.062-.257-.957-.607-1.85-1.053-2.68-.448-.828-.927-1.627-1.436-2.393-.765-.637-1.468-1.244-2.104-1.818-.64-.574-1.436-1.053-2.393-1.436s-1.884-.7-2.775-.958c-.895-.254-1.98-.445-3.254-.574 1.02-.126 1.914-.287 2.68-.48s1.562-.444 2.393-.765c.828-.317 1.498-.7 2.01-1.148.51-.445 1.083-.987 1.723-1.627.383-.51.796-1.115 1.244-1.818.445-.7.766-1.436.957-2.2s.384-1.595.575-2.49c.19-.89.222-1.848.096-2.87.127-1.402.063-2.68-.19-3.828-.257-1.148-.574-2.2-.957-3.158s-.927-1.85-1.627-2.68c-.703-.828-1.436-1.562-2.2-2.2-.896-.767-1.853-1.403-2.872-1.915-1.022-.51-2.17-.925-3.445-1.245-1.278-.317-2.65-.527-4.116-.656-1.47-.128-3.098-.18-4.883-.18H29.29l-.19 63H48.43c2.17 0 4.05-.123 5.647-.314 1.594-.19 3.158-.46 4.69-.78 1.53-.316 2.837-.738 3.923-1.25 1.083-.51 2.136-1.152 3.158-1.917.766-.638 1.498-1.405 2.2-2.3.7-.892 1.245-1.882 1.628-2.968.383-1.083.7-2.297.957-3.637.254-1.34.317-2.71.19-4.115.128-1.275.098-2.456-.093-3.542zM40.775 25h7.848c.637 0 1.307-.067 2.01.06.7.128 1.307.19 1.818.315.51.13.987.254 1.436.445.445.19.796.462 1.053.845.382.257.67.566.86.95s.413.794.67 1.24c.254.447.383.954.383 1.528s.062 1.18.19 1.817c-.128.64-.19 1.244-.19 1.818s-.13 1.086-.383 1.53c-.257.45-.448.862-.574 1.245-.13.383-.448.703-.957.957-.13.257-.45.512-.958.766-.512.257-1.022.448-1.53.574-.513.13-1.12-.012-1.82.05-.703.066-1.373-.14-2.01-.14h-8.04l.193-14zm17.992 36.197c0 .703-.13 1.34-.383 1.914-.257.575-.512 1.12-.766 1.628-.257.512-.64.895-1.148 1.148-.257.383-.67.703-1.244.957-.574.257-1.182.48-1.818.67-.64.19-1.373.324-2.2.387-.832.065-1.693.1-2.585.1h-8.04l.192-19h7.848c.892 0 1.753.246 2.584.31.828.064 1.53.297 2.105.488s1.15.47 1.724.723c.574.258 1.053.602 1.436.985.51.383.86.844 1.053 1.353.19.512.413 1.06.67 1.634.254.574.413 1.247.48 2.013.06.766.157 1.598.286 2.49-.13.765-.193 1.502-.193 2.202z"/>
</symbol><symbol id="code" viewBox="0 0 100 100">
    <path d="M39.948 77.867v7.064H34.4c-6.14 0-10.25-.91-12.335-2.735-2.084-1.825-3.125-5.463-3.125-10.912V63.33c0-3.722-.66-6.292-1.98-7.71-1.318-1.418-3.704-2.127-7.156-2.127H7.51V46.43h2.293c3.452 0 5.837-.704 7.157-2.11 1.32-1.405 1.98-3.98 1.98-7.73v-7.95c0-5.45 1.04-9.082 3.124-10.895 2.083-1.812 6.195-2.718 12.335-2.718h5.547v7.027h-4.55c-2.564 0-4.277.518-5.14 1.554-.864 1.035-1.295 3.316-1.295 6.843v7.73c0 4.07-.604 6.93-1.812 8.58-1.208 1.653-3.366 2.714-6.473 3.183 3.107.518 5.264 1.615 6.473 3.292 1.208 1.677 1.812 4.537 1.812 8.58v7.583c0 3.55.43 5.85 1.294 6.897s2.577 1.572 5.142 1.572h4.55zM60.006 77.867h4.476c2.564 0 4.29-.53 5.178-1.59.888-1.06 1.332-3.354 1.332-6.88v-7.583c0-4.043.604-6.903 1.812-8.58 1.208-1.677 3.353-2.774 6.436-3.292-3.107-.47-5.258-1.53-6.454-3.182-1.196-1.65-1.794-4.512-1.794-8.58v-7.73c0-3.478-.438-5.746-1.313-6.807-.876-1.06-2.61-1.59-5.198-1.59h-4.476v-7.027h5.548c6.115 0 10.202.906 12.26 2.718 2.06 1.812 3.09 5.444 3.09 10.894v7.952c0 3.724.67 6.294 2.015 7.712 1.343 1.418 3.753 2.127 7.23 2.127h2.293v7.063H90.15c-3.477 0-5.887.715-7.23 2.145-1.345 1.43-2.017 3.995-2.017 7.693v7.953c0 5.45-1.03 9.087-3.088 10.912-2.06 1.824-6.146 2.736-12.26 2.736h-5.55v-7.063z"/>
</symbol><symbol id="deleted" viewBox="0 0 100 100">
    <path d="M85 43H59.958c-.132 0-.253-.172-.388-.232-1.148-.51-2.362-.978-3.637-1.36l-5.36-2.116c-.894-.254-1.755-.546-2.583-.866-.83-.317-1.53-.64-2.105-.96-.574-.317-1.086-.606-1.53-.863-.45-.254-.862-.575-1.245-.958-.257-.254-.48-.54-.67-.862l-.574-.957c-.19-.317-.32-.67-.383-1.053-.065-.383-.096-.766-.096-1.148 0-.637.062-1.18.19-1.627.127-.445.288-.892.48-1.34.19-.445.445-.828.766-1.148l1.053-1.053c.383-.254.828-.48 1.34-.67.51-.19 1.053-.383 1.627-.574s1.18-.317 1.818-.383c.638-.062 1.34-.096 2.106-.096s1.498.033 2.2.096c.7.065 1.37.16 2.01.287.638.13 1.308.287 2.01.48.7.19 1.437.415 2.202.67.637.256 1.307.51 2.01.765.7.257 1.402.574 2.105.957.7.382 1.16.765 1.8 1.147.637.383 1.897.765 1.897 1.148V18.61c0-.255-1.292-.542-1.992-.862-.703-.317-1.33-.574-2.097-.766s-1.448-.413-2.148-.67c-.703-.254-1.41-.445-2.175-.574-.766-.126-1.488-.254-2.188-.383-.704-.126-1.43-.222-2.196-.287-.766-.062-1.498-.126-2.198-.19-.703-.063-1.434-.097-2.2-.097-1.53 0-3.03.097-4.497.288-1.47.19-2.84.512-4.116.957-1.277.448-2.458.957-3.54 1.53-1.087.575-2.076 1.245-2.968 2.01-1.022.767-1.884 1.628-2.584 2.585-.703.957-1.277 1.98-1.723 3.062-.45 1.086-.767 2.234-.958 3.445-.19 1.214-.287 2.52-.287 3.924 0 1.023.063 2.01.19 2.968.127.957.318 1.884.575 2.775.254.895.604 1.723 1.053 2.488.445.767.924 1.447 1.436 1.956.064.065.136.234.2.234H15v7h29.914c.165.064.324.127.493.19l6.125 2.106c.51.257 1.02.48 1.53.67.51.19.958.448 1.34.766.384.32.767.607 1.15.86.382.258.7.575.956.958.254.383.48.766.67 1.148l.574 1.148s.317.8.383 1.244c.062.448.096.86.096 1.244 0 .64-.064 1.214-.19 1.723-.13.512-.287 1.022-.48 1.53-.19.513-.447.958-.765 1.34-.32.384-.735.767-1.244 1.15-.382.256-.83.51-1.34.765-.51.257-1.052.48-1.626.67s-1.214.32-1.914.383c-.703.065-1.436.096-2.2.096s-1.565-.03-2.394-.095c-.83-.062-1.627-.158-2.393-.287-.766-.126-1.53-.287-2.297-.48s-1.53-.478-2.297-.86c-.767-.254-1.565-.54-2.394-.86-.83-.318-1.66-.7-2.488-1.15-.83-.444-1.824-.923-2.652-1.435-.83-.508-1.556-1.018-2.556-1.53v12.44c1 .384 1.662.704 2.365.958.7.258 1.518.545 2.283.862.766.32 1.603.574 2.434.766.828.19 1.647.416 2.413.67.766.13 1.572.257 2.403.383.828.13 1.632.226 2.398.288.766.065 1.534.13 2.3.19.765.066 1.594.097 2.49.097 1.913 0 3.7-.096 5.36-.287 1.656-.19 3.22-.48 4.69-.86 1.465-.384 2.775-.862 3.923-1.437s2.23-1.243 3.253-2.01c.892-.636 1.69-1.435 2.393-2.392.7-.957 1.307-2.01 1.818-3.158.51-1.148.86-2.393 1.053-3.732s.287-2.775.287-4.307c0-1.147-.065-2.23-.19-3.253-.13-1.02-.354-2.01-.67-2.967-.32-.957-.704-1.85-1.15-2.68-.16-.298-.347-.57-.516-.86H85v-7z"/>
</symbol><symbol id="direction" viewBox="0 0 100 100">
    <path d="M1 25.5L28.754 7.89v13.973H50v7.082H28.754V43.11M30.86 79.326c-.13-.383-.258-.72-.384-.978-.13-.254-.257-.52-.383-.776-.13-.254-.257-.484-.383-.675-.13-.19-.257-.352-.383-.48-.13-.127-.257-.256-.383-.385-.13-.126-.257-.222-.383-.288-.128-.062-.256-.126-.382-.192-.13-.062-.257-.096-.383-.096.51-.126.957-.254 1.34-.383.383-.126.732-.287 1.053-.48.317-.19.637-.444.957-.765.317-.317.604-.67.86-1.053.255-.254.48-.604.67-1.053.192-.445.177-.892.306-1.34.128-.443.02-.954.02-1.528v-1.627c0-.892.14-1.753.078-2.584-.065-.828-.104-1.562-.296-2.2-.19-.638-.405-1.212-.722-1.724-.32-.51-.648-.958-1.03-1.34s-.85-.733-1.426-1.054c-.574-.317-1.176-.574-1.813-.766-.64-.19-1.336-.358-2.102-.424-.765-.062-1.657-.136-2.676-.136H15v35h6V78h1.437c.254 0 .54.134.86.26.318.13.638.417.958.8.317.383.604.816.86 1.26.255.45.51 1.062.767 1.828.126 0 .19.07.19.196 0 .13-.102.227-.036.29.064.064-.036.13-.036.192v.287L29.902 92h6.125L30.86 79.326zm-3.35-10.568c-.065.383-.13.703-.19.957-.066.257-.162.512-.288.766-.13.258-.257.513-.383.767-.258.13-.48.257-.67.383-.192.13-.45.257-.767.383-.32.13-.64.027-.957.09-.32.064-.67-.103-1.053-.103H21v-9h2.203c.383 0 .766-.055 1.148.008.384.065.7.085.958.147.254.065.48.14.67.265.19.13.413.31.67.563.126.13.254.315.383.57.127.256.223.54.288.858.062.32.126.64.19.957.063.32.097.735.097 1.243 0 .383-.033.765-.095 1.148zM99 74.5L71.246 92.11V77.944H50v-7.082h21.246V56.89M70.672 8.082v28.71h14.355v6.126H63.973V8.082"/>
</symbol><symbol id="ellipsis" viewBox="0 0 100 100">
    <circle cx="20.241" cy="50.785" r="7.609"/>
    <circle cx="49.813" cy="50.785" r="7.609"/>
    <circle cx="79.385" cy="50.785" r="7.609"/>
</symbol><symbol id="file" viewBox="0 0 100 100">
    <path d="M90.482 23.107c-1.022-2.488-2.488-4.69-4.402-6.604l-2.87-2.87c-1.915-1.915-4.116-3.38-6.605-4.403-2.488-1.02-5.01-1.53-7.56-1.53-2.555 0-5.073.51-7.562 1.53-2.488 1.022-4.69 2.488-6.604 4.402L13.727 54.785C11.814 56.7 10.378 58.9 9.42 61.39s-1.435 5.01-1.435 7.56c0 2.554.48 5.042 1.436 7.465.958 2.426 2.394 4.66 4.308 6.7l2.87 2.87c1.915 1.914 4.116 3.35 6.605 4.307s5.007 1.436 7.56 1.436c2.552 0 5.073-.48 7.562-1.436s4.69-2.393 6.604-4.307l2.87-2.87-5.727-5.728-1.163 1.134c-1.405 1.406-2.967 2.46-4.69 3.16-1.722.702-3.51 1.085-5.358 1.147-1.852.065-3.637-.254-5.36-.957-1.722-.7-3.286-1.69-4.688-2.967-1.277-1.402-2.267-2.967-2.967-4.69-.703-1.722-1.053-3.507-1.053-5.358 0-1.85.383-3.637 1.148-5.36s1.85-3.283 3.254-4.688l37.704-37.9c1.402-1.403 2.997-2.456 4.785-3.16 1.785-.7 3.57-1.052 5.36-1.052 1.784 0 3.54.32 5.263.957 1.723.64 3.284 1.66 4.69 3.062 1.4 1.405 2.422 2.967 3.06 4.69.638 1.722.958 3.478.958 5.263 0 1.788-.353 3.574-1.053 5.36-.703 1.787-1.756 3.382-3.158 4.784L53.158 66.46l-7.273-7.08 24.117-23.927c-1.148-.637-2.297-1.083-3.445-1.34-1.148-.254-2.234-.35-3.254-.287-1.022.065-2.01.287-2.967.67s-1.818.957-2.584 1.723L42.056 51.913c-1.022 1.022-1.692 2.2-2.01 3.54-.32 1.34-.383 2.746-.19 4.212.19 1.47.67 2.937 1.435 4.402.767 1.47 1.786 2.84 3.063 4.115.254.257.54.544.86.86.318.32.67.608 1.054.862.383.257.732.48 1.053.67.317.19.67.416 1.053.67.766.383 1.498.67 2.2.86.7.192 1.437.354 2.202.48.766.13 1.498.16 2.2.096.7-.06 1.37-.157 2.01-.286l.767.766L86.08 44.832c1.914-1.914 3.38-4.115 4.402-6.604 1.02-2.488 1.53-5.007 1.53-7.56 0-2.55-.51-5.072-1.53-7.56z"/>
</symbol><symbol id="font" viewBox="0 0 100 100">
    <path d="M35.836 22H22.82L8.082 77h10.72l3.253-14H36.41l3.445 14h10.72l-14.74-55zM24.16 54l5.168-22.395L34.305 54H24.16zM91.768 48.373c-.13-1.466-.373-2.806-.69-4.02-.32-1.21-.746-2.297-1.254-3.254-.512-.958-1.154-1.754-1.92-2.394-.64-.637-1.407-1.21-2.298-1.723-.895-.51-1.915-.957-3.064-1.34s-2.426-.48-3.83-.61C77.307 34.91 75.775 35 74.118 35h-2.105c-.64 0-1.277-.123-1.914-.06-.64.064-1.277.05-1.914.112-.64.065-1.277.122-1.914.248-.512.13-1.086.268-1.723.46-.64.19-1.244.342-1.818.468-.575.13-1.276.315-1.913.57-.64.257-.817.507-1.817.76v9.19c1-.384 1.368-.733 2.008-1.054.637-.317 1.32-.604 1.96-.86.638-.255 1.27-.48 1.843-.67s1.19-.414 1.83-.67c.638-.127 1.25-.255 1.825-.384.574-.126 1.182-.222 1.82-.287.638-.062 1.277-.126 1.917-.19.637-.063 1.275-.097 1.915-.097.51 0 1.053.033 1.627.096.574.065 1.083.16 1.53.287.446.128.862.286 1.245.478s.7.353.956.48c.383.256.67.51.86.765.192.257.384.574.575.957s.123.766.19 1.148c.06.383-.1.766-.1 1.148V50h-6.884c-1.66 0-3.19-.096-4.594.096-1.405.19-2.713.32-3.924.574-1.214.257-2.297.56-3.254 1.005-.957.448-1.818.903-2.584 1.412-.766.64-1.436 1.298-2.01 1.998-.574.703-1.053 1.495-1.436 2.387-.383.895-.67 1.85-.86 2.868-.192 1.022-.288 2.17-.288 3.444 0 1.148.062 2.2.19 3.157.127.958.35 1.884.67 2.776.318.895.733 1.692 1.245 2.392.51.703 1.084 1.373 1.724 2.01.637.64 1.34 1.182 2.105 1.627.765.448 1.593.83 2.487 1.148.892.32 1.85.544 2.87.67 1.02.13 2.106.19 3.255.19.637 0 1.244-.03 1.818-.095.574-.062 1.148-.126 1.723-.19.574-.063 1.115-.192 1.627-.384.51-.19 1.02-.413 1.53-.67.51-.254.988-.54 1.437-.86l1.34-.958c.445-.317.666-.7 1.05-1.148.384-.446.763-.862.763-1.245V77h11V53.254c0-1.785-.106-3.412-.232-4.88zM81 58.23c0 .895.162 1.788.1 2.68-.065.895-.094 1.692-.285 2.393-.19.703-.4 1.405-.717 2.105-.32.703-.646 1.31-1.028 1.818-.383.512-.787.957-1.232 1.34-.448.383-.95.703-1.525.957-.574.257-1.18.48-1.815.67-.64.19-1.276.287-1.913.287-.512 0-.956-.062-1.34-.19l-1.147-.384c-.383-.126-.735-.287-1.053-.48-.32-.19-.607-.412-.86-.67-.384-.253-.67-.54-.862-.86-.19-.317-.353-.67-.478-1.053-.13-.383-.225-.796-.287-1.244-.065-.446-.096-.862-.096-1.245 0-.637.063-1.244.19-1.818.127-.574.288-1.083.48-1.53.19-.446.413-.83.67-1.15.254-.316.574-.603.957-.86.382-.254.86-.48 1.435-.67s1.21-.35 1.914-.48c.7-.125 1.465-.453 2.296-.52.826-.06 1.75-.327 2.774-.327H81v1.23z"/>
</symbol><symbol id="fontsize" viewBox="0 0 100 100">
    <path d="M42.72 42.248c-.13-1.466-.397-2.775-.714-3.924-.32-1.148-.758-2.168-1.266-3.062-.512-.892-1.097-1.723-1.734-2.488-.64-.637-1.38-1.21-2.207-1.723-.832-.508-1.792-.923-2.875-1.243-1.086-.317-2.298-.514-3.638-.643-1.34-.126-2.843-.164-4.5-.164H23.97s-1.183.006-1.82.068c-.64.065-1.243.115-1.817.178-.574.065-1.182.154-1.818.28-.512.13-1.053.253-1.627.38-.574.128-1.148.284-1.723.476s-1.056.382-1.63.573-1.535.416-1.535.67v8.996c0-.382 1.15-.73 1.726-1.052.574-.317 1.102-.604 1.676-.86.574-.255 1.125-.48 1.7-.67s1.166-.35 1.806-.48c.51-.126 1.047-.254 1.62-.383.575-.126 1.147-.222 1.72-.287.575-.062 1.178-.126 1.818-.19.637-.063 1.21-.097 1.722-.097.637 0 1.21.034 1.722.097.51.065.987.16 1.435.287.445.13.828.257 1.148.383.317.13.67.32 1.053.574.254.258.478.513.67.767.19.257.383.544.574.86.19.32.383.67.448 1.054.063.384.162.767.162 1.15V43h-7.213c-1.53 0-2.937.312-4.21.438-1.278.13-2.49.476-3.638.793-1.15.32-2.202.732-3.16 1.115s-1.755.925-2.392 1.562c-.766.512-1.436 1.134-2.01 1.834-.574.704-1.022 1.477-1.34 2.306-.32.83-.574 1.76-.766 2.78-.19 1.02-.287 2.106-.287 3.255s.062 2.203.19 3.16c.127.957.35 1.852.67 2.68.318.83.7 1.597 1.15 2.297.444.703.986 1.373 1.626 2.01.638.64 1.308 1.182 2.01 1.627.7.448 1.5.83 2.394 1.148.892.32 1.818.544 2.775.67.956.13 1.943.19 2.966.19.637 0 1.244-.03 1.818-.095.574-.062 1.115-.158 1.627-.287.51-.126 1.02-.287 1.532-.48.51-.19.957-.412 1.34-.67.51-.125.987-.35 1.436-.67.445-.316.86-.636 1.244-.956.383-.317.83-.67 1.214-1.053S33 65.825 33 65.313V70h10V46.938c0-1.658-.154-3.22-.28-4.69zM33 51.723c0 .895-.13 1.788-.257 2.68-.13.895-.29 1.692-.416 2.393-.13.703-.37 1.373-.686 2.01-.32.64-.677 1.214-1.06 1.723-.257.51-.612.956-1.057 1.34-.448.382-.96.702-1.533.956-.574.257-1.15.448-1.724.574-.574.13-1.182.19-1.82.19-.382 0-.798-.03-1.243-.095-.448-.062-.83-.158-1.15-.287-.32-.126-.64-.287-.956-.48-.32-.19-.607-.412-.86-.67-.258-.253-.48-.54-.67-.86-.192-.317-.354-.67-.48-1.053-.13-.383-.225-.766-.287-1.148-.065-.383-.096-.828-.096-1.34 0-.637.03-1.21.096-1.723.062-.51.19-.957.383-1.34s.445-.766.766-1.148c.316-.383.67-.7 1.052-.957.383-.255.828-.48 1.34-.67.51-.192 1.083-.35 1.723-.48.637-.126 1.34-.2 2.105-.266.766-.062 1.657-.074 2.68-.074H33v.723zM92.014 63.973l-17.61 27.754-17.61-27.754H70.96V35.836H56.794l17.61-27.754 17.61 27.754H77.85v28.137"/>
</symbol><symbol id="fontstyle" viewBox="0 0 100 100">
    <path d="M22.15 77.945h55.89v13.973H22.15zM58.71 15H41.29L21.96 71h14.163l4.402-14h18.95l4.4 14H78.04L58.71 15zM43.395 48l6.7-22.97 6.7 22.97h-13.4z"/>
</symbol><symbol id="footnote" viewBox="0 0 100 100">
    <path d="M25.6 28.17v4.02h14.108v9.23h-14.11v36.71H13.583V41.42H2.425v-9.23H13.58v-3.2c0-5.52 1.15-9.35 3.446-11.483s6.562-3.2 12.797-3.2h9.885v9.23h-9.393c-1.805 0-3.03.328-3.67.984-.643.657-.99 1.874-1.046 3.65zM46.415 9.205H58.32v4.453h-5.67v33.914h5.67v4.453H46.416V9.205zM96.936 9.205v42.797H85.03V47.55h5.67V13.657h-5.67V9.205h11.906zM70.05 47.134h6.307V14.33h-6.262l-6.79 1.624V21.8l6.746-1.67"/>
</symbol><symbol id="format" viewBox="0 0 100 100">
    <path d="M67.418 21.863h-6.89v62.973H46.362V56.89c-2.81 0-5.488-.54-8.04-1.626-2.553-1.083-4.784-2.584-6.698-4.498s-3.415-4.146-4.498-6.7c-1.086-2.55-1.627-5.293-1.627-8.23 0-2.805.54-5.484 1.627-8.038 1.083-2.55 2.584-4.785 4.498-6.7s4.146-3.41 6.7-4.497c2.55-1.082 5.23-1.626 8.038-1.626H74.5v69.863h-7.082V21.863z"/>
</symbol><symbol id="fullscreen" viewBox="0 0 100 100">
    <path d="M31.338 73.256L42.344 62.25c.254-.254.413-.54.48-.86.06-.318.06-.67 0-1.054-.066-.383-.162-.766-.288-1.148-.13-.383-.383-.766-.766-1.148-.257-.254-.574-.48-.957-.67s-.766-.317-1.148-.383c-.383-.062-.766-.03-1.148.096-.383.13-.703.32-.957.574L26.655 68.614 8 50v41.727l41.96.19-18.622-18.66zM92 8H50l18.667 18.698-11.01 10.888c-.258.257-.417.56-.48.943-.065.382-.096.758-.096 1.14s.097.733.288 1.05c.19.32.48.668.86 1.05.255.384.575.64.958.766.383.13.766.224 1.148.287.383.065.766.065 1.148 0 .383-.062.7-.222.957-.48l10.993-10.952L92 50V8z"/>
</symbol><symbol id="horizontalrule" viewBox="0 0 100 100">
    <path d="M1 42.918h98V56.89H1z"/>
</symbol><symbol id="html" viewBox="0 0 100 100">
    <path d="M7.986 44.45l34.836 27.944-6.7 5.742L.905 50l7.082-5.55zm27.946-22.587l7.082 5.742L7.794 55.55l-6.698-5.358 34.836-28.33zM92.205 44.45l-35.22 27.945 7.083 5.742L98.904 50l-6.7-5.55zM63.877 21.862l-6.7 5.742L92.015 55.55l7.082-5.36-35.22-28.327z"/>
</symbol><symbol id="image" viewBox="0 0 100 100">
    <path d="M1 14.78l98 .192v69.672l-98 .192V14.78zm7.082 7.083v55.89l83.836.192V21.672l-83.836.19zM63.972 56.7l9.19-17.993L85.027 56.7v14.163l-70.055-.19V56.89l21.055-28.136L57.083 56.89l6.89-.19z"/>
</symbol><symbol id="indent" viewBox="0 0 100 100">
    <path d="M99 21.863v13.973H1V21.863h98zM1 42.918l28.137 17.61L1 77.944V42.918zm98 0V56.89H36.027V42.92H99zm0 21.055v13.973H36.027V63.973H99z"/>
</symbol><symbol id="inserted" viewBox="0 0 100 100">
    <path d="M78.04 77.945l-.19 6.89h-55.7l-.19-6.89h56.08zm-41.15-9.76c1.147.64 2.358 1.147 3.636 1.53 1.274.383 2.742.703 4.402.957 1.657.257 3.316.383 4.977.383 2.04 0 3.828-.126 5.36-.383 1.53-.254 2.966-.574 4.306-.957s2.52-.892 3.542-1.53c1.02-.638 2.04-1.403 3.063-2.298.766-.892 1.466-1.88 2.105-2.967.637-1.083 1.148-2.297 1.53-3.637s.7-2.806.958-4.402c.254-1.593.317-3.35.19-5.263l.192-34.645H58.9l.19 37.324c-.128.766-.224 1.436-.286 2.01-.065.574-.225 1.148-.48 1.723-.256.573-.51 1.085-.765 1.53-.258.448-.64.86-1.15 1.244-.256.383-.64.735-1.147 1.053-.512.32-1.022.574-1.53.766-.513.19-1.087.32-1.724.383-.64.065-1.278.096-1.915.096-.766 0-1.436-.03-2.01-.096-.574-.062-1.148-.19-1.723-.383s-1.086-.445-1.53-.766c-.45-.317-.928-.67-1.437-1.053-.257-.383-.544-.796-.86-1.244-.32-.445-.545-.957-.67-1.53-.13-.575-.288-1.15-.48-1.724s-.225-1.244-.096-2.01l-.192-37.324H29.04l-.19 34.645c.126 1.914.287 3.67.48 5.264.19 1.598.508 3.063.956 4.403.445 1.34.957 2.554 1.53 3.637.575 1.086 1.37 2.075 2.394 2.967.636.894 1.53 1.66 2.68 2.297z"/>
</symbol><symbol id="italic" viewBox="0 0 100 100">
    <path d="M47.894 25.883l-12.44-.192 2.105-10.717 36.94-.192-2.106 11.103-12.25-.192-7.847 41.345 12.25-.19-2.106 11.1-36.94-.19 2.105-10.72 12.442-.19"/>
</symbol><symbol id="justify" viewBox="0 0 100 100">
    <path d="M98.81 21.863v13.973H1V21.863h97.81zm0 21.055V56.89H1V42.92h97.81zM99 63.973v13.973H1V63.973h98z"/>
</symbol><symbol id="keyboardinput" viewBox="0 0 100 100">
    <path d="M15 15v70h70V15H15zm50 26.38c-1-1.503-3.433-2.66-5.524-3.466-2.092-.806-4.14-1.21-6.382-1.21-3.91 0-6.858 1.245-8.964 3.732-2.106 2.488-3.128 6.03-3.128 10.623s1.067 8.12 3.173 10.58c2.105 2.462 5.12 3.692 9.03 3.692 2.325 0 4.264-.39 6.288-1.17 2.023-.777 4.507-1.96 5.507-3.546V71.65c-2 1.175-3.96 2.057-6.283 2.645-2.324.588-4.707.882-7.387.882-7.082 0-12.56-2.133-16.552-6.398-3.993-4.267-5.958-10.173-5.958-17.72 0-7.573 2.025-13.5 6.044-17.78 4.02-4.28 9.578-6.42 16.66-6.42 2.46 0 4.598.288 6.882.862 2.282.574 4.594 1.463 6.594 2.666V41.38z"/>
</symbol><symbol id="link" viewBox="0 0 100 100">
    <path d="M26.744 34.018c-.703.065-1.405.19-2.105.383-.704.192-1.374.417-2.01.67-.64.258-1.278.513-1.915.767h-5.742v4.594c-.512.64-.99 1.31-1.436 2.01-.448.704-.83 1.47-1.148 2.298-.32.83-.545 1.692-.67 2.584-.13.895-.192 1.788-.192 2.68 0 .895.062 1.756.19 2.584.127.83.35 1.66.67 2.488.318.83.7 1.597 1.15 2.297.444.704.923 1.437 1.435 2.202v4.402h5.742c.637.257 1.274.512 1.914.766.636.257 1.306.48 2.01.67.7.19 1.4.32 2.104.383.7.065 1.436.096 2.2.096s1.5-.03 2.202-.097c.7-.062 1.402-.19 2.105-.383.7-.19 1.37-.413 2.01-.67.638-.254 1.275-.51 1.915-.766h5.742v9.953c-1.022.64-2.075 1.182-3.158 1.627-1.087.448-2.202.86-3.35 1.244s-2.363.67-3.638.86c-1.277.192-2.554.288-3.828.288-3.828 0-7.435-.732-10.814-2.2-3.383-1.467-6.35-3.477-8.9-6.03-2.554-2.55-4.563-5.518-6.03-8.9C1.733 57.436 1 53.828 1 50c0-3.954.732-7.623 2.2-11.006 1.467-3.38 3.477-6.347 6.03-8.9 2.55-2.55 5.518-4.56 8.9-6.03 3.38-1.465 6.986-2.2 10.814-2.2 1.274 0 2.55.096 3.828.287 1.274.192 2.488.48 3.637.862s2.263.8 3.35 1.244c1.082.448 2.135.99 3.157 1.627v9.953h-5.742c-.64-.254-1.277-.51-1.914-.766-.64-.254-1.31-.48-2.01-.67-.702-.19-1.404-.317-2.104-.383-.703-.062-1.436-.096-2.2-.096s-1.502.035-2.202.098zm37.228 8.9V56.89H36.027V42.92h27.945zm3.254 34.74c-1.277-.19-2.488-.48-3.637-.86-1.15-.384-2.268-.797-3.35-1.245-1.087-.445-2.14-.987-3.16-1.627v-9.953h5.743c.637.257 1.274.512 1.914.766.637.256 1.307.478 2.01.67.7.19 1.402.32 2.105.382.7.065 1.436.096 2.2.096 2.424 0 4.69-.413 6.796-1.244 2.105-.828 3.954-1.977 5.55-3.445 1.595-1.467 2.84-3.16 3.733-5.073.893-1.914 1.34-3.954 1.34-6.125 0-2.297-.447-4.402-1.34-6.316-.894-1.914-2.138-3.604-3.73-5.072C81.8 37.148 79.953 36 77.847 35.17c-2.105-.83-4.372-1.245-6.795-1.245-.766 0-1.5.033-2.2.096-.704.066-1.406.192-2.106.384-.703.19-1.373.416-2.01.67l-1.914.766H57.08v-9.953c1.02-.637 2.073-1.18 3.16-1.627 1.082-.445 2.2-.86 3.35-1.244 1.147-.383 2.358-.67 3.636-.86 1.274-.192 2.55-.288 3.828-.288 3.828 0 7.432.735 10.814 2.2 3.38 1.47 6.347 3.48 8.9 6.03 2.55 2.554 4.56 5.52 6.03 8.9C98.263 42.378 99 46.046 99 50c0 3.828-.735 7.435-2.2 10.814-1.47 3.383-3.48 6.35-6.03 8.9-2.554 2.554-5.52 4.563-8.9 6.03-3.383 1.468-6.986 2.2-10.814 2.2-1.28 0-2.555-.094-3.83-.286z"/>
</symbol><symbol id="list" viewBox="0 0 100 100">
    <path d="M14.973 21.863v13.973H1V21.863h13.973zm0 21.055V56.89H1V42.92h13.973zm0 21.055v13.973H1V63.973h13.973zM99 21.863v13.973H28.945V21.863H99zm0 21.055V56.89H28.945V42.92H99zm0 21.055v13.973H28.945V63.973H99z"/>
</symbol><symbol id="lists" viewBox="0 0 100 100">
    <path d="M14.973 21.863v13.973H1V21.863h13.973zm0 21.055V56.89H1V42.92h13.973zm0 21.055v13.973H1V63.973h13.973zM99 21.863v13.973H28.945V21.863H99zm0 21.055V56.89H28.945V42.92H99zm0 21.055v13.973H28.945V63.973H99z"/>
</symbol><symbol id="marked" viewBox="0 0 100 100">
    <g>
        <path d="M73.6 3.878L93.243 23.52l-7.235 7.236-19.643-19.643zM63.783 13.71L11.85 65.645 6.236 90.908 31.5 85.294l51.932-51.932-19.65-19.65zM26.475 80.27l-6.74 1.607-4.49-4.49 1.582-6.765 46.998-46.998 9.648 9.648L26.475 80.27z"/>
    </g>
</symbol><symbol id="normalscreen" viewBox="0 0 100 100">
    <path d="M43 57.082l-41.96-.19 18.6 18.703L8.666 86.56c-.257.256-.42.543-.484.86-.065.32-.068.67-.003 1.053.06.383.156.766.285 1.148.126.384.382.767.765 1.15.254.256.574.478.957.67s.765.32 1.148.382c.383.065.766.033 1.148-.096.383-.126.7-.317.957-.574l10.898-10.857L43 99V57.082zM80.29 24.208L91.344 13.25c.254-.254.413-.54.48-.86.06-.318.095-.67.095-1.054s-.097-.766-.288-1.148c-.19-.383-.48-.766-.86-1.148-.258-.254-.575-.48-.958-.67s-.766-.317-1.148-.383c-.383-.062-.766-.03-1.148.096-.383.13-.703.32-.957.574l-11 10.862L57 1v42.11l41.96-.192-18.67-18.71z"/>
</symbol><symbol id="orderedlist" viewBox="0 0 100 100">
    <path d="M8.082 71.246c-.257.257-.512.544-.766.86-.257.32-.512.575-.766.767-.257.19-.48.416-.67.67-.19.257-.353.448-.48.574h8.614v3.828H1v-3.637l2.105-2.488c.637-.766 1.244-1.436 1.818-2.01s1.053-1.083 1.436-1.53c.382-.446.7-.83.956-1.15.254-.316.445-.54.574-.67.254-.253.445-.478.574-.67.126-.19.254-.382.383-.573.126-.19.222-.35.287-.48l.287-.573c.127-.126.192-.254.192-.383 0-.125.03-.286.096-.478.062-.19.096-.35.096-.48v-.382-.766c0-.254-.033-.48-.096-.67-.065-.19-.16-.35-.287-.48-.128-.125-.256-.253-.382-.382-.13-.126-.287-.254-.48-.383-.19-.127-.382-.223-.573-.288-.19-.062-.383-.096-.574-.096H6.07s-.382.033-.573.096c-.19.065-.383.13-.574.19-.19.066-.416.097-.67.097-.257.128-.48.224-.67.286-.19.065-.416.16-.67.287-.257.13-.512.257-.766.383-.257.13-.512.257-.766.383v-4.02c.255 0 .51-.063.767-.192.254-.126.51-.222.766-.287.254-.06.48-.125.67-.19.19-.062.413-.096.67-.096.254-.126.51-.19.766-.19h.67s.412-.03.67-.097c.253-.062.444-.096.573-.096.637 0 1.18.034 1.627.097.445.065.892.16 1.34.287.445.13.86.32 1.244.574.383.257.7.512.957.766.255.257.51.544.767.86.254.32.48.64.67.958.19.32.317.703.383 1.148.062.448.096.86.096 1.244v.67s-.033.383-.096.574c-.065.19-.13.383-.19.574-.066.19-.097.416-.097.67-.13.13-.225.287-.287.48-.065.19-.16.415-.287.67-.13.256-.258.478-.384.67-.13.19-.32.415-.574.67-.13.128-.287.32-.48.573-.19.257-.447.574-.765.957-.32.383-.703.8-1.148 1.244-.45.45-.99.993-1.628 1.63zM1.957 43.492v-3.828H6.55V25.69l-4.21 1.15v-3.828l4.21-1.148h3.83v17.8h4.593v3.83H1.957zm26.988-21.63v13.974H99V21.863H28.945zm0 21.056V56.89H99V42.92H28.945zm0 21.055v13.973H99V63.973H28.945z"/>
</symbol><symbol id="outdent" viewBox="0 0 100 100">
    <path d="M29.04 77.945L.905 60.527l28.137-17.61v35.028zM1.097 21.863v13.973h98V21.863h-98zm35.027 21.055V56.89h62.973V42.92H36.123zm0 21.055v13.973h62.973V63.973H36.123z"/>
</symbol><symbol id="preventlinebreak" viewBox="0 0 100 100">
    <path d="M8 15v70h84V15H8zm77 58.655L72.34 63H78V29H57v7h14v20h-7.23L21.245 22H85v51.655zM15 25.41L52.702 56H31.657l4.413-4.34-4.876-4.855L21 57.3v4.917l10.193 10.428 4.928-5.047L31.658 63h29.617l17.48 15H15V25.41z"/>
</symbol><symbol id="quote" viewBox="0 0 100 100">
    <path d="M21.672 36.602c1.148-1.657 2.455-3.125 3.924-4.402 1.466-1.274 3.093-2.55 4.88-3.828 1.786-1.274 3.733-2.423 5.84-3.445 2.104-1.02 4.368-2.04 6.794-3.062v4.402c-1.405.383-2.745.957-4.02 1.723-1.277.766-2.458 1.53-3.54 2.297-1.087.766-2.106 1.66-3.063 2.68-.957 1.022-1.884 2.043-2.775 3.062-.766 1.276-1.436 2.457-2.01 3.54-.574 1.086-1.086 2.267-1.53 3.54-.45 1.278-.767 2.49-.958 3.638s-.287 2.362-.287 3.637c0 .13.03.353.096.67.062.32.096.544.096.67 0 .13.03.32.095.574.062.256.158.382.287.382 0 .13.03.19.096.19.062 0 .126.066.19.192.063.13.127.16.192.096.062-.062.158-.03.287.096 0-.126.03-.158.096-.096.062.065.158.033.287-.096.126-.126.254-.19.383-.19.126 0 .254-.127.383-.384.383-.126.828-.35 1.34-.67.51-.317 1.053-.54 1.627-.67.574-.126 1.148-.254 1.723-.383.574-.126 1.18-.126 1.818 0 .766-.126 1.53-.062 2.297.19.767.258 1.5.513 2.202.767.7.257 1.37.64 2.01 1.148.637.512 1.21 1.086 1.723 1.723.637.766 1.18 1.47 1.627 2.105.445.64.828 1.373 1.148 2.2.317.832.54 1.628.67 2.394.126.766.19 1.66.19 2.68 0 .766-.095 1.627-.286 2.584s-.448 1.818-.766 2.584c-.32.766-.735 1.564-1.244 2.393-.512.83-1.086 1.564-1.723 2.2-.765.767-1.53 1.406-2.296 1.915-.766.512-1.564.957-2.393 1.34-.83.383-1.69.64-2.583.766-.895.13-1.852.257-2.87.383-1.023-.127-2.076-.288-3.16-.48-1.085-.19-2.138-.54-3.157-1.053-1.022-.51-1.98-1.115-2.87-1.818-.896-.7-1.724-1.563-2.49-2.585-.894-.892-1.626-1.914-2.2-3.062s-1.086-2.36-1.53-3.637c-.45-1.274-.767-2.68-.958-4.21s-.287-2.998-.287-4.403c0-2.04.126-3.924.383-5.646.254-1.723.67-3.476 1.244-5.264.574-1.785 1.274-3.445 2.105-4.977.828-1.53 1.818-3.062 2.967-4.594v.19zm39.238 0c1.148-1.657 2.423-3.125 3.828-4.402 1.402-1.274 2.997-2.55 4.785-3.828 1.785-1.274 3.732-2.423 5.838-3.445 2.106-1.02 4.37-2.04 6.796-3.062v4.402c-1.405.383-2.713.957-3.924 1.723-1.214.766-2.393 1.53-3.54 2.297s-2.202 1.66-3.16 2.68c-.956 1.022-1.817 2.043-2.583 3.062-.767 1.276-1.47 2.457-2.106 3.54-.64 1.086-1.148 2.267-1.53 3.54-.384 1.278-.67 2.49-.862 3.638s-.287 2.362-.287 3.637v.67c0 .32.03.544.096.67.063.13.16.448.288.957.126.13.222.19.287.19.062 0 .126.066.19.192.063.13.127.16.192.096.062-.062.096-.03.096.096.126-.126.222-.158.287-.096.062.065.158.033.287-.096.126-.126.254-.19.383-.19.126 0 .254-.127.383-.384.383-.126.828-.35 1.34-.67.51-.317 1.02-.54 1.53-.67.51-.126 1.084-.254 1.724-.383.637-.126 1.274-.126 1.914 0 .767-.126 1.532-.062 2.298.19.766.258 1.466.513 2.105.767.637.257 1.274.64 1.914 1.148.637.512 1.274 1.086 1.914 1.723.638.766 1.18 1.47 1.628 2.105.445.64.796 1.373 1.053 2.2.255.832.48 1.628.67 2.394s.288 1.66.288 2.68c0 .766-.096 1.627-.287 2.584s-.447 1.818-.765 2.584c-.32.766-.735 1.564-1.244 2.393-.51.83-1.147 1.564-1.913 2.2-.64.767-1.34 1.406-2.105 1.915-.766.512-1.564.957-2.393 1.34-.832.383-1.693.64-2.585.766-.895.13-1.852.257-2.87.383-1.15-.127-2.235-.288-3.255-.48-1.022-.19-2.043-.54-3.062-1.053-1.022-.51-1.98-1.115-2.87-1.818-.896-.7-1.79-1.563-2.68-2.585-.767-.892-1.47-1.914-2.106-3.062-.64-1.148-1.148-2.36-1.53-3.637-.384-1.274-.67-2.68-.862-4.21s-.287-2.998-.287-4.403c0-2.04.126-3.924.383-5.646.254-1.723.67-3.476 1.244-5.264.574-1.785 1.274-3.445 2.105-4.977.828-1.53 1.818-3.062 2.967-4.594v.19z"/>
</symbol><symbol id="redo" viewBox="0 0 100 100">
    <path d="M78.707 33.156c-5.55-4.465-10.05-8.006-13.494-10.623-3.445-2.614-5.725-4.528-7.19-5.742C56.552 15.58 56 15.04 56 15.165v20.098c-10-1.402-18.906-.7-26.497 2.105-7.594 2.81-13.775 6.828-18.37 12.06-4.593 5.232-7.7 11.038-9.23 17.417-1.532 6.382-1.234 12.44.934 18.184 1.914-3.188 4.134-5.9 6.688-8.135 2.55-2.23 5.863-4.21 9.948-5.934 4.082-1.724 9.234-3.063 15.105-4.02C40.446 65.98 47 65.186 56 64.546v20.48c0-.126.713-.86 2.5-2.2 1.786-1.34 4.41-3.51 8.047-6.51 3.637-2.996 8.12-6.728 13.545-11.196 5.422-4.464 11.75-9.76 19.023-15.886-8.04-6.25-14.857-11.61-20.408-16.078zm-2.87 25.553c-3.13 2.36-5.713 4.147-7.753 5.358-2.043 1.214-3.554 2.105-4.573 2.68-1.022.574-1.51.8-1.51.67V55.742c-5 .383-9.815.83-15.237 1.34-5.425.512-10.537 1.244-15.323 2.2s-8.727 2.076-12.235 3.35C15.695 63.91 13 65.57 13 67.61v-.192c-2-3.188-1.073-6.604 1.032-10.24s5.316-6.7 9.847-9.188c4.527-2.488 10.045-4.24 16.62-5.264 6.57-1.02 13.5-.508 21.5 1.532V32.39c0 .13.363.48 1.128 1.054s2.062 1.597 3.914 3.062c1.85 1.47 4.364 3.287 7.555 5.455 3.188 2.172 7.205 4.915 12.056 8.23-4.085 3.32-7.692 6.16-10.817 8.52z"/>
</symbol><symbol id="removeallstyles" viewBox="0 0 100 100">
    <path d="M98.553 30.56C97.818 28.777 96.08 28 94.148 28h-40.15c-1.254 0-2.457.105-3.35.987L2.593 76.31c-1.373 1.358-1.79 3.682-1.056 5.468C2.27 83.563 4.01 85 5.94 85h40.152c1.254 0 2.457-.864 3.35-1.746l48.056-47.508c1.372-1.357 1.788-3.4 1.055-5.185zM45.1 78H12l15-15h33.1l-15 15z"/>
</symbol><symbol id="settings" viewBox="0 0 100 100">
    <g>
        <path d="M44 80.294v-6.06l-6.145-1.11c-.32-1.138-.855-2.23-.855-3.24v-.007l3.463-5.472-4.507-4.284-5.584 3.91c-1.018-.57-2.16-1.042-3.298-1.37L25.91 56h-6.06l-1.11 6.66c-1.14.32-2.23.788-3.242 1.357l-5.472-3.903L5.742 64.4l3.91 5.475c-.57 1.018-1.354 2.103-1.68 3.243L1 74.228v6.06l6.97 1.11c.32 1.138.943 2.23 1.513 3.24l-3.825 5.473 4.326 4.285 5.493-3.91c1.018.57 2.113 1.285 3.252 1.613L19.85 99h6.06l1.108-6.902c1.14-.32 2.23-.91 3.242-1.478l5.472 3.842 4.284-4.318-3.91-5.49c.57-1.017.975-2.11 1.302-3.25L44 80.295zm-21.12 3.024c-3.346 0-6.06-2.715-6.06-6.06 0-3.345 2.714-6.06 6.06-6.06 3.344 0 6.06 2.715 6.06 6.06 0 3.345-2.716 6.06-6.06 6.06zM99 37.87v-6.06l-6.567-1.158c-.115-.764-.36-1.515-.542-2.254l5.402-3.515-2.344-5.6-6.35 1.37c-.4-.654-.83-1.29-1.284-1.91l3.688-5.332-4.286-4.283-5.333 3.69c-.618-.448-1.255-.88-1.91-1.28l1.37-6.337-5.6-2.32-3.515 5.447c-.74-.182-1.49-.576-2.254-.697L68.316 1h-6.06L61.1 7.63c-.765.115-1.516.39-2.255.573L55.33 2.817l-5.6 2.352 1.37 6.353c-.655.4-1.292.832-1.91 1.286L43.857 9.12l-4.284 4.286 3.69 5.334c-.448.618-.88 1.255-1.28 1.91l-6.338-1.37-2.32 5.6 5.447 3.514c-.182.74-1.3 1.49-1.42 2.254L30 31.81v6.06l7.353 1.156c.115.764.753 1.515.935 2.254l-5.205 3.515 2.442 5.6 6.4-1.37c.4.653.854 1.29 1.308 1.908l-3.675 5.333 4.292 4.284 5.336-3.69c.618.447 1.256.878 1.91 1.278l-1.368 6.34 5.6 2.32 3.515-5.448c.74.182 1.49 1.237 2.254 1.358L62.257 70h6.06l1.156-7.29c.764-.116 1.515-.723 2.254-.904l3.515 5.22 5.6-2.435-1.37-6.394c.654-.4 1.29-.853 1.91-1.307l5.332 3.675 4.284-4.29-3.69-5.337c.448-.618.88-1.256 1.28-1.91l6.338 1.368 2.32-5.6L91.8 41.28c.18-.738.512-1.49.634-2.253L99 37.87zM65.298 48.02c-7.278 0-13.18-5.903-13.18-13.18s5.902-13.18 13.18-13.18 13.18 5.9 13.18 13.18-5.902 13.18-13.18 13.18z"/>
    </g>
</symbol><symbol id="smallprint" viewBox="0 0 100 100">
    <path d="M96.132 88.02l-26.26-26.26c3.505-5.456 5.548-11.935 5.548-18.887 0-19.327-15.724-35.05-35.05-35.05S5.316 23.545 5.316 42.872s15.724 35.05 35.05 35.05c7.324 0 14.127-2.26 19.756-6.115l26.11 26.11 9.9-9.898zM12.317 42.873c0-15.467 12.584-28.05 28.05-28.05S68.42 27.405 68.42 42.872s-12.585 28.05-28.052 28.05-28.05-12.583-28.05-28.05z"/>
    <path d="M39.805 34.77l-5.522 7.853 6.006 8.555h-5.01l-3.224-5.522-3.208 5.522h-5.01l6.064-8.555-5.58-7.852h5.01l2.724 4.894 2.74-4.893h5.01zM50.783 52.95c-.576 1.543-1.267 2.67-2.073 3.377s-1.785 1.062-2.937 1.062h-3.545V54.12h1.743c.88 0 1.524-.148 1.935-.446s.825-.99 1.245-2.073l.322-.88-6.24-15.95h4.512l3.75 10.648 3.59-10.648h4.51l-6.81 18.178z"/>
</symbol><symbol id="sourcecitation" viewBox="0 0 100 100">
    <path d="M5.046 97.908C16.284 64.192 45.696 8 94.954 8 71.864 26.527 61.238 69.812 44.38 69.812H27.524L10.665 97.908h-5.62z"/>
</symbol><symbol id="subscript" viewBox="0 0 100 100">
    <path d="M61.964 32.19L46.5 54.175l16.817 23.953H49.29l-9.023-15.463-8.982 15.463H17.257l16.98-23.953L18.61 32.19h14.027l7.63 13.7 7.67-13.7h14.027zM73.347 83.15h13.82v5.714h-20.83v-5.537l3.517-3.735c4.175-4.438 6.71-7.17 7.603-8.195 1.1-1.26 1.89-2.377 2.373-3.352.483-.974.725-1.937.725-2.89 0-1.464-.443-2.596-1.33-3.395-.886-.798-2.142-1.197-3.768-1.197-1.157 0-2.457.23-3.9.692-1.442.46-2.947 1.132-4.515 2.01v-6.042c1.567-.57 3.102-1.007 4.603-1.308 1.502-.3 2.94-.45 4.318-.45 3.472 0 6.2.81 8.185 2.428 1.984 1.62 2.978 3.827 2.978 6.625 0 1.29-.217 2.498-.648 3.626-.433 1.128-1.176 2.38-2.23 3.757-.776.997-2.907 3.238-6.394 6.725-1.892 1.89-3.394 3.398-4.507 4.526z"/>
</symbol><symbol id="superscript" viewBox="0 0 100 100">
    <path d="M61.964 32.19L46.5 54.175l16.817 23.953H49.29l-9.023-15.463-8.982 15.463H17.257l16.98-23.953L18.61 32.19h14.027l7.63 13.7 7.67-13.7h14.027zM73.347 41.42h13.82v5.714h-20.83v-5.537l3.517-3.735c4.175-4.438 6.71-7.17 7.603-8.196 1.1-1.26 1.89-2.376 2.373-3.35.483-.975.725-1.94.725-2.89 0-1.466-.443-2.597-1.33-3.396-.886-.798-2.142-1.197-3.768-1.197-1.157 0-2.458.23-3.9.692-1.443.46-2.948 1.13-4.515 2.01v-6.042c1.567-.57 3.102-1.007 4.603-1.308 1.5-.3 2.94-.45 4.318-.45 3.472 0 6.2.81 8.185 2.428 1.984 1.62 2.977 3.827 2.977 6.625 0 1.29-.216 2.497-.648 3.625-.433 1.128-1.176 2.38-2.23 3.758-.776.997-2.908 3.238-6.394 6.725-1.892 1.89-3.393 3.398-4.506 4.526z"/>
</symbol><symbol id="table" viewBox="0 0 100 100">
    <path d="M1 14.78v70.056l98-.19V14.972L1 14.78zm28 63.165l-21-.19V63.972l21-.19v14.162zM29 56.7l-21 .19V42.728l21 .19V56.7zm0-20.864l-21-.19V21.862l21-.19v14.163zm35 42.11l-28-.192v-13.78l28-.192v14.163zm0-21.247l-28 .19V42.727l28 .19V56.7zm0-20.864l-28-.19V21.862l28-.19v14.163zm28 42.11l-21-.192v-13.78l21-.192v14.163zm0-21.247l-21 .19V42.727l21 .19V56.7zm0-20.864l-21-.19V21.862l21-.19v14.163z"/>
</symbol><symbol id="undo" viewBox="0 0 100 100">
    <path d="M44 84.802v0zM44 14.973V14.972zM98.08 66.748c-1.598-6.442-4.66-12.25-9.19-17.418-4.53-5.168-10.622-9.188-18.278-12.06s-16.398-3.54-26.223-2.01l-.192-20.252c-.09.138-.79.698-2.106 1.686-1.53 1.148-3.99 3.062-7.37 5.742-3.382 2.68-7.88 6.22-13.493 10.623C15.612 37.462 8.85 42.854.94 49.233c7.145 6 13.46 11.263 18.95 15.79 5.484 4.532 10.015 8.265 13.59 11.198 3.57 2.937 6.282 5.105 8.134 6.508 1.616 1.228 2.477 1.918 2.584 2.072l.19-20.255c8.166.512 15.218 1.277 21.15 2.297 5.935 1.022 10.91 2.362 14.93 4.02 4.02 1.66 7.337 3.637 9.954 5.934 2.614 2.297 4.815 4.977 6.604 8.04 2.297-5.615 2.647-11.645 1.053-18.09zm-10.624.67c-.895-1.914-3.062-3.54-6.508-4.88s-7.594-2.456-12.44-3.35c-4.852-.893-9.954-1.628-15.313-2.202S42.73 56 37.883 55.742l.19 14.547-.19-2.872c.126 0-.353-.254-1.436-.766-1.086-.51-2.617-1.402-4.594-2.68-1.98-1.274-4.563-3.062-7.752-5.36-3.19-2.296-6.764-5.167-10.718-8.612 4.72-3.188 8.71-5.9 11.963-8.135 3.254-2.23 5.772-4.05 7.56-5.455 1.786-1.402 3.094-2.423 3.925-3.062.616-.474.966-.77 1.054-.893l.19 11.57c7.835-1.876 14.983-2.344 21.438-1.394 6.508.958 12.06 2.714 16.652 5.265 4.594 2.554 7.91 5.616 9.953 9.188 2.04 3.573 2.487 7.02 1.34 10.335z"/>
</symbol><symbol id="unorderedlist" viewBox="0 0 100 100">
    <path d="M14.973 21.863v13.973H1V21.863h13.973zm0 21.055V56.89H1V42.92h13.973zm0 21.055v13.973H1V63.973h13.973zM99 21.863v13.973H28.945V21.863H99zm0 21.055V56.89H28.945V42.92H99zm0 21.055v13.973H28.945V63.973H99z"/>
</symbol><symbol id="video" viewBox="0 0 100 100">
    <path d="M1 14.78l98 .192v69.672l-98 .192V14.78zm7.082 7.083v55.89l83.836.192V21.672l-83.836.19zm27.945 49v-42.11L63.973 50 36.027 70.672v.19z"/>
</symbol></svg>