<svg xmlns="http://www.w3.org/2000/svg" viewBox="0 0 32 32" fill="currentColor">
  <path d="M1.844 6h22.313q.781 0 1.313.531t.531 1.313v.313q0 .781-.531 1.313t-1.313.531H1.844q-.781 0-1.313-.531T0 8.157v-.313q0-.781.531-1.313T1.844 6zm0 8h28.313q.781 0 1.313.531t.531 1.313v.281q0 .781-.531 1.313t-1.313.531H1.844q-.75 0-1.297-.531T0 16.157v-.313q0-.781.531-1.313T1.844 14zm0 8h22.313q.781 0 1.313.531t.531 1.313v.313q0 .781-.531 1.313t-1.313.531H1.844q-.781 0-1.313-.531T0 24.157v-.313q0-.781.531-1.313T1.844 22z"/>
</svg>
