<svg xmlns="http://www.w3.org/2000/svg" viewBox="0 0 32 32">
  <path d="M17 30h-.156q-2.219 0-4.188-.844-1.969-.813-3.438-2.266t-2.313-3.391q-.875-1.938-.906-4.156 0-2.219 1.531-5.219 1.5-2.969 3.438-5.672t3.719-4.578T17 1.999t2.313 1.875 3.719 4.578 3.438 5.672q1.531 3 1.531 5.219-.031 2.219-.906 4.156-.844 1.938-2.313 3.391t-3.438 2.266Q19.375 30 17.156 30H17zm0-2.656h.125q1.656 0 3.125-.625T22.828 25t1.734-2.531q.656-1.469.688-3.125 0-1.656-1.188-3.969-1.156-2.281-2.625-4.359t-2.813-3.547Q17.311 6 16.999 6t-1.625 1.469q-1.344 1.469-2.813 3.547t-2.625 4.359q-1.188 2.313-1.188 3.969.031 1.656.688 3.125.625 1.438 1.734 2.531t2.578 1.719 3.125.625h.125z"/>
</svg>
