<svg xmlns="http://www.w3.org/2000/svg" viewBox="0 0 75 75" stroke-linejoin="round" stroke-miterlimit="1.41421">
  <circle cx="37.5" cy="37.5" r="37.5" fill="#ef2b60"/>
  <path d="M37.557 20.723c.069.005.138.014.206.03.326.075.62.265.886.46.223.164.436.343.643.528.259.232.51.473.756.719.871.868 1.69 1.788 2.473 2.735a58.628 58.628 0 0 1 2.476 3.23 50.098 50.098 0 0 1 4.326 7.258c.382.807.721 1.635.984 2.488.22.714.388 1.445.471 2.188.037.326.06.656.056.985a12.937 12.937 0 0 1-.26 2.453 12.319 12.319 0 0 1-.84 2.599c-.277.624-.59 1.229-.954 1.806a12.755 12.755 0 0 1-4.87 4.513c-.375.198-.759.375-1.15.539a13.49 13.49 0 0 1-1.366.495 13.105 13.105 0 0 1-3.713.529c-.342.001-.684.001-1.026-.016a12.921 12.921 0 0 1-1.469-.153 12.57 12.57 0 0 1-2.946-.855 13.214 13.214 0 0 1-1.835-.927 12.843 12.843 0 0 1-3.928-3.734 13.14 13.14 0 0 1-1.211-2.197 12.305 12.305 0 0 1-.84-2.599 12.963 12.963 0 0 1-.26-2.453 7.901 7.901 0 0 1 .056-.985 11.95 11.95 0 0 1 .471-2.188c.263-.853.602-1.681.984-2.488a50.16 50.16 0 0 1 4.185-7.062 60.32 60.32 0 0 1 2.346-3.096 39.29 39.29 0 0 1 2.744-3.065c.246-.246.497-.487.756-.719a8.75 8.75 0 0 1 .643-.528c.266-.195.56-.385.886-.46.068-.016.137-.025.206-.03.057-.002.057-.002.114 0Zm-.09 6.115c-.344.29-.654.619-.959.949-.119.129-.236.26-.354.39-.226.25-.45.501-.669.757a41.807 41.807 0 0 0-1.888 2.391 44.456 44.456 0 0 0-1.426 2.045 39.278 39.278 0 0 0-1.907 3.25c-.192.367-.382.736-.557 1.112a11.831 11.831 0 0 0-.775 2.11 6.4 6.4 0 0 0-.201 1.341c-.007.194.003.389.016.582.024.357.069.713.137 1.064.121.626.318 1.232.575 1.816a8.431 8.431 0 0 0 1.219 2.007c1.337 1.636 3.29 2.769 5.383 3.078.319.047.641.075.963.087.206.007.412.006.617.006a8.692 8.692 0 0 0 2.224-.286 8.474 8.474 0 0 0 1.478-.551 8.7 8.7 0 0 0 3.103-2.493 8.732 8.732 0 0 0 1.093-1.848 8.389 8.389 0 0 0 .718-2.989c.007-.122.014-.245.012-.368a5.842 5.842 0 0 0-.107-1.012 8.925 8.925 0 0 0-.335-1.231c-.173-.501-.38-.989-.609-1.467a39.194 39.194 0 0 0-2.294-4.058 43.55 43.55 0 0 0-1.523-2.195 41.807 41.807 0 0 0-1.888-2.391 36.955 36.955 0 0 0-.67-.757c-.117-.13-.234-.261-.354-.39-.17-.184-.343-.366-.521-.543a6.61 6.61 0 0 0-.469-.432l-.032.026Z" fill="#fff"/>
</svg>
