<?xml version="1.0" encoding="UTF-8" standalone="no"?><!DOCTYPE svg PUBLIC "-//W3C//DTD SVG 1.1//EN" "http://www.w3.org/Graphics/SVG/1.1/DTD/svg11.dtd"><svg width="100%" height="100%" viewBox="0 0 75 75" version="1.1" xmlns="http://www.w3.org/2000/svg" xmlns:xlink="http://www.w3.org/1999/xlink" xml:space="preserve" style="fill-rule:evenodd;clip-rule:evenodd;stroke-linejoin:round;stroke-miterlimit:1.41421;"><circle cx="37.5" cy="37.5" r="37.5" style="fill:#ef2b60;"/><path d="M37.557,20.723c0.069,0.005 0.138,0.014 0.206,0.03c0.326,0.075 0.62,0.265 0.886,0.46c0.223,0.164 0.436,0.343 0.643,0.528c0.259,0.232 0.51,0.473 0.756,0.719c0.871,0.868 1.69,1.788 2.473,2.735c0.865,1.046 1.686,2.127 2.476,3.23c1.361,1.898 2.589,3.89 3.672,5.959c0.225,0.429 0.446,0.861 0.654,1.299c0.382,0.807 0.721,1.635 0.984,2.488c0.22,0.714 0.388,1.445 0.471,2.188c0.037,0.326 0.06,0.656 0.056,0.985c-0.003,0.279 -0.016,0.558 -0.036,0.836c-0.041,0.543 -0.115,1.084 -0.224,1.617c-0.119,0.58 -0.278,1.15 -0.479,1.707c-0.109,0.302 -0.231,0.598 -0.361,0.892c-0.277,0.624 -0.59,1.229 -0.954,1.806c-0.749,1.187 -1.691,2.253 -2.781,3.137c-0.649,0.526 -1.35,0.987 -2.089,1.376c-0.375,0.198 -0.759,0.375 -1.15,0.539c-0.447,0.188 -0.901,0.356 -1.366,0.495c-1.205,0.358 -2.457,0.527 -3.713,0.529c-0.342,0.001 -0.684,0.001 -1.026,-0.016c-0.492,-0.023 -0.983,-0.074 -1.469,-0.153c-0.694,-0.112 -1.377,-0.282 -2.042,-0.508c-0.306,-0.104 -0.606,-0.221 -0.904,-0.347c-0.196,-0.082 -0.39,-0.166 -0.582,-0.256c-0.429,-0.201 -0.848,-0.425 -1.253,-0.671c-1.557,-0.946 -2.902,-2.229 -3.928,-3.734c-0.324,-0.474 -0.616,-0.971 -0.875,-1.483c-0.119,-0.235 -0.229,-0.474 -0.336,-0.714c-0.13,-0.294 -0.252,-0.59 -0.361,-0.893c-0.201,-0.556 -0.36,-1.127 -0.479,-1.706c-0.109,-0.534 -0.183,-1.074 -0.224,-1.617c-0.02,-0.278 -0.033,-0.557 -0.036,-0.836c-0.004,-0.329 0.019,-0.659 0.056,-0.985c0.083,-0.743 0.251,-1.474 0.471,-2.188c0.263,-0.853 0.602,-1.681 0.984,-2.488c0.208,-0.438 0.429,-0.87 0.654,-1.299c1.046,-1.998 2.226,-3.924 3.531,-5.763c0.75,-1.056 1.53,-2.091 2.346,-3.096c0.865,-1.065 1.773,-2.097 2.744,-3.065c0.246,-0.246 0.497,-0.487 0.756,-0.719c0.207,-0.185 0.42,-0.364 0.643,-0.528c0.266,-0.195 0.56,-0.385 0.886,-0.46c0.068,-0.016 0.137,-0.025 0.206,-0.03c0.057,-0.002 0.057,-0.002 0.114,0Zm-0.09,6.115c-0.344,0.29 -0.654,0.619 -0.959,0.949c-0.119,0.129 -0.236,0.26 -0.354,0.39c-0.226,0.25 -0.45,0.501 -0.669,0.757c-0.66,0.772 -1.286,1.573 -1.888,2.391c-0.493,0.669 -0.971,1.349 -1.426,2.045c-0.687,1.052 -1.324,2.137 -1.907,3.25c-0.192,0.367 -0.382,0.736 -0.557,1.112c-0.317,0.679 -0.592,1.382 -0.775,2.11c-0.11,0.439 -0.186,0.888 -0.201,1.341c-0.007,0.194 0.003,0.389 0.016,0.582c0.024,0.357 0.069,0.713 0.137,1.064c0.121,0.626 0.318,1.232 0.575,1.816c0.111,0.253 0.231,0.502 0.365,0.744c0.246,0.446 0.532,0.869 0.854,1.263c1.337,1.636 3.29,2.769 5.383,3.078c0.319,0.047 0.641,0.075 0.963,0.087c0.206,0.007 0.412,0.006 0.617,0.006c0.75,-0.002 1.499,-0.092 2.224,-0.286c0.509,-0.136 1.003,-0.323 1.478,-0.551c1.209,-0.58 2.28,-1.434 3.103,-2.493c0.442,-0.568 0.803,-1.19 1.093,-1.848c0.1,-0.228 0.193,-0.458 0.274,-0.694c0.184,-0.534 0.312,-1.088 0.385,-1.649c0.028,-0.214 0.047,-0.43 0.059,-0.646c0.007,-0.122 0.014,-0.245 0.012,-0.368c-0.004,-0.339 -0.044,-0.678 -0.107,-1.012c-0.08,-0.418 -0.196,-0.828 -0.335,-1.231c-0.173,-0.501 -0.38,-0.989 -0.609,-1.467c-0.128,-0.269 -0.264,-0.534 -0.401,-0.798c-0.578,-1.116 -1.21,-2.204 -1.893,-3.26c-0.483,-0.748 -0.995,-1.478 -1.523,-2.195c-0.602,-0.818 -1.228,-1.619 -1.888,-2.391c-0.219,-0.256 -0.444,-0.507 -0.67,-0.757c-0.117,-0.13 -0.234,-0.261 -0.354,-0.39c-0.17,-0.184 -0.343,-0.366 -0.521,-0.543c-0.15,-0.15 -0.305,-0.297 -0.469,-0.432c-0.011,0.009 -0.021,0.017 -0.032,0.026Z" style="fill:#fff;"/></svg>