<svg xmlns="http://www.w3.org/2000/svg" xmlns:xlink="http://www.w3.org/1999/xlink" width="32" height="310"><symbol id="textcolor" viewBox="0 0 32 32"><title>uniE90A</title><path d="M13.75 17.969h4.406l-2.188-6.531-2.219 6.531zM26 2H6Q4.344 2 3.172 3.172T2 6v20q0 1.656 1.172 2.828T6 30h20q1.656 0 2.828-1.172T30 26V6q0-1.656-1.172-2.828T26 2zm-5.562 22l-1.344-3.594h-6.25L11.594 24H8l7.25-18h1.438l7.313 18h-3.563z"/></symbol><symbol id="style" viewBox="0 0 32 32"><title>uniE914</title><path d="M17 30h-.156q-2.219 0-4.188-.844-1.969-.813-3.438-2.266t-2.313-3.391q-.875-1.938-.906-4.156 0-2.219 1.531-5.219 1.5-2.969 3.438-5.672t3.719-4.578T17 1.999t2.313 1.875 3.719 4.578 3.438 5.672q1.531 3 1.531 5.219-.031 2.219-.906 4.156-.844 1.938-2.313 3.391t-3.438 2.266Q19.375 30 17.156 30H17zm0-2.656h.125q1.656 0 3.125-.625T22.828 25t1.734-2.531q.656-1.469.688-3.125 0-1.656-1.188-3.969-1.156-2.281-2.625-4.359t-2.813-3.547Q17.311 6 16.999 6t-1.625 1.469q-1.344 1.469-2.813 3.547t-2.625 4.359q-1.188 2.313-1.188 3.969.031 1.656.688 3.125.625 1.438 1.734 2.531t2.578 1.719 3.125.625h.125z"/></symbol><symbol id="align" viewBox="0 0 32 32"><title>uniE901</title><path d="M1.844 6h22.313q.781 0 1.313.531t.531 1.313v.313q0 .781-.531 1.313t-1.313.531H1.844q-.781 0-1.313-.531T0 8.157v-.313q0-.781.531-1.313T1.844 6zm0 8h28.313q.781 0 1.313.531t.531 1.313v.281q0 .781-.531 1.313t-1.313.531H1.844q-.75 0-1.297-.531T0 16.157v-.313q0-.781.531-1.313T1.844 14zm0 8h22.313q.781 0 1.313.531t.531 1.313v.313q0 .781-.531 1.313t-1.313.531H1.844q-.781 0-1.313-.531T0 24.157v-.313q0-.781.531-1.313T1.844 22z"/></symbol><symbol id="quote" viewBox="0 0 24 24"><title>quote</title><path d="M6 17h3l2-4V7H5v6h3zm8 0h3l2-4V7h-6v6h3z"/><path d="M0 0h24v24H0z" fill="none"/></symbol><symbol id="money" viewBox="0 0 24 24"><title>money</title><path d="M11.8 10.9c-2.27-.59-3-1.2-3-2.15 0-1.09 1.01-1.85 2.7-1.85 1.78 0 2.44.85 2.5 2.1h2.21c-.07-1.72-1.12-3.3-3.21-3.81V3h-3v2.16c-1.94.42-3.5 1.68-3.5 3.61 0 2.31 1.91 3.46 4.7 4.13 2.5.6 3 1.48 3 2.41 0 .69-.49 1.79-2.7 1.79-2.06 0-2.87-.92-2.98-2.1h-2.2c.12 2.19 1.76 3.42 3.68 3.83V21h3v-2.15c1.95-.37 3.5-1.5 3.5-3.55 0-2.84-2.43-3.81-4.7-4.4z"/><path d="M0 0h24v24H0z" fill="none"/></symbol><symbol id="menu" viewBox="0 0 24 24"><title>menu</title><path d="M0 0h24v24H0z" fill="none"/><path d="M6 10c-1.1 0-2 .9-2 2s.9 2 2 2 2-.9 2-2-.9-2-2-2zm12 0c-1.1 0-2 .9-2 2s.9 2 2 2 2-.9 2-2-.9-2-2-2zm-6 0c-1.1 0-2 .9-2 2s.9 2 2 2 2-.9 2-2-.9-2-2-2z"/></symbol><symbol id="marked" viewBox="0 0 24 24"><title>marked</title><path d="M3 17.25V21h3.75L17.81 9.94l-3.75-3.75L3 17.25zM20.71 7.04a.996.996 0 0 0 0-1.41l-2.34-2.34a.996.996 0 0 0-1.41 0l-1.83 1.83 3.75 3.75 1.83-1.83z"/><path d="M0 0h24v24H0z" fill="none"/></symbol><symbol id="label" viewBox="0 0 24 24"><title>label</title><path d="M0 0h24v24H0z" fill="none"/><path d="M17.63 5.84C17.27 5.33 16.67 5 16 5L5 5.01C3.9 5.01 3 5.9 3 7v10c0 1.1.9 1.99 2 1.99L16 19c.67 0 1.27-.33 1.63-.84L22 12l-4.37-6.16z"/></symbol><symbol id="hidden" viewBox="0 0 24 24"><title>hidden</title><path d="M0 0h24v24H0zm0 0h24v24H0zm0 0h24v24H0zm0 0h24v24H0z" fill="none"/><path d="M12 7c2.76 0 5 2.24 5 5 0 .65-.13 1.26-.36 1.83l2.92 2.92c1.51-1.26 2.7-2.89 3.43-4.75-1.73-4.39-6-7.5-11-7.5-1.4 0-2.74.25-3.98.7l2.16 2.16C10.74 7.13 11.35 7 12 7zM2 4.27l2.28 2.28.46.46A11.804 11.804 0 0 0 1 12c1.73 4.39 6 7.5 11 7.5 1.55 0 3.03-.3 4.38-.84l.42.42L19.73 22 21 20.73 3.27 3 2 4.27zM7.53 9.8l1.55 1.55c-.05.21-.08.43-.08.65 0 1.66 1.34 3 3 3 .22 0 .44-.03.65-.08l1.55 1.55c-.67.33-1.41.53-2.2.53-2.76 0-5-2.24-5-5 0-.79.2-1.53.53-2.2zm4.31-.78l3.15 3.15.02-.16c0-1.66-1.34-3-3-3l-.17.01z"/></symbol><symbol id="function" viewBox="0 0 24 24"><title>function</title><path d="M0 0h24v24H0z" fill="none"/><path d="M18 4H6v2l6.5 6L6 18v2h12v-3h-7l5-5-5-5h7z"/></symbol><symbol id="favorite" viewBox="0 0 24 24"><title>favorite</title><path d="M0 0h24v24H0z" fill="none"/><path d="M16.5 3c-1.74 0-3.41.81-4.5 2.09C10.91 3.81 9.24 3 7.5 3 4.42 3 2 5.42 2 8.5c0 3.78 3.4 6.86 8.55 11.54L12 21.35l1.45-1.32C18.6 15.36 22 12.28 22 8.5 22 5.42 19.58 3 16.5 3zm-4.4 15.55l-.1.1-.1-.1C7.14 14.24 4 11.39 4 8.5 4 6.5 5.5 5 7.5 5c1.54 0 3.04.99 3.57 2.36h1.87C13.46 5.99 14.96 5 16.5 5c2 0 3.5 1.5 3.5 3.5 0 2.89-3.14 5.74-7.9 10.05z"/></symbol><symbol id="clearstyles" viewBox="0 0 24 24"><title>clearstyles</title><path d="M0 0h24v24H0z" fill="none"/><path d="M14.59 8L12 10.59 9.41 8 8 9.41 10.59 12 8 14.59 9.41 16 12 13.41 14.59 16 16 14.59 13.41 12 16 9.41 14.59 8zM12 2C6.47 2 2 6.47 2 12s4.47 10 10 10 10-4.47 10-10S17.53 2 12 2zm0 18c-4.41 0-8-3.59-8-8s3.59-8 8-8 8 3.59 8 8-3.59 8-8 8z"/></symbol><use xlink:href="#clearstyles" width="24" height="24"/><use xlink:href="#favorite" y="26" width="24" height="24"/><use xlink:href="#function" y="52" width="18" height="18"/><use xlink:href="#hidden" y="72" width="18" height="18"/><use xlink:href="#label" y="92" width="24" height="24"/><use xlink:href="#marked" y="118" width="24" height="24"/><use xlink:href="#menu" y="144" width="24" height="24"/><use xlink:href="#money" y="170" width="18" height="18"/><use xlink:href="#quote" y="190" width="18" height="18"/><use xlink:href="#align" y="210" width="32" height="32"/><use xlink:href="#style" y="244" width="32" height="32"/><use xlink:href="#textcolor" y="278" width="32" height="32"/></svg>